<?xml version="1.0" encoding="utf-8"?>
<!-- Designed by Vexels.com - 2020 All Rights Reserved - https://vexels.com/terms-and-conditions/  -->
<svg version="1.1" id="Layer_1" xmlns="http://www.w3.org/2000/svg" xmlns:xlink="http://www.w3.org/1999/xlink" x="0px" y="0px"
	 viewBox="0 0 1200 1200" enable-background="new 0 0 1200 1200" xml:space="preserve">
<g>
	<path fill="#019798" d="M906.925,173.538c-7.976-4.383-16.316-8.089-25.012-11.083
		c-148.944-51.291-345.127,126.223-438.198,396.488c-2.022,5.876-3.984,11.742-5.867,17.609c-0.069,0.2-0.139,0.399-0.2,0.607
		c-0.868,2.682-1.718,5.363-2.552,8.036c-1.632,5.216-3.211,10.432-4.73,15.63c-0.503,1.692-0.989,3.385-1.475,5.077
		c-1.658,5.771-3.255,11.543-4.791,17.288c-0.573,2.161-1.137,4.322-1.701,6.474c-0.026,0.113-0.052,0.234-0.087,0.356
		c-2.265,8.774-4.391,17.514-6.362,26.21c0,0.017,0,0.026-0.009,0.035c-0.989,4.365-1.944,8.713-2.855,13.053
		c0,0.009,0,0.026-0.009,0.035c-0.92,4.339-1.805,8.67-2.638,12.992c0,0.009,0,0.017-0.009,0.026
		c-0.85,4.322-1.658,8.635-2.421,12.931c0,0.009,0,0.017-0.009,0.026c-13.513,75.149-16.047,146.688-8.418,209.86
		c0.929,7.785,2.014,15.439,3.272,22.955c0.347,2.152,0.712,4.287,1.102,6.414c1.51,8.505,3.228,16.828,5.155,24.951
		c0.946,4.062,1.953,8.071,3.02,12.037c0.781,2.977,1.597,5.928,2.456,8.844c0.555,1.944,1.128,3.871,1.727,5.789
		c2.048,6.717,4.253,13.27,6.622,19.657c18.677,50.701,46.605,90.762,82.995,115.74L297.618,1004.44
		c-132.42-67.364-169.348-315.984-80.747-573.395c76.251-221.464,269.9-353.676,399.612-378.323
		c36.598-6.952,74.481-0.434,106.965,17.809L906.925,173.538z"/>
	
		<ellipse transform="matrix(0.3256 -0.9455 0.9455 0.3256 -135.1762 1114.1135)" fill="#83C3B8" cx="713.398" cy="651.814" rx="517.563" ry="285.223"/>
	<g>
		<path fill="#019798" d="M713.743,885.565c2.604,2.073,5.392,3.833,8.326,5.264l-52.059-18.414
			c-2.091-0.578-4.145-1.293-6.135-2.173h-0.027c-3.595-1.577-7.015-3.622-10.151-6.116L513.202,752.424
			c-19.817-15.763-23.118-44.604-7.354-64.42c9.051-11.389,22.421-17.313,35.919-17.313c4.768,0,9.555,0.733,14.168,2.237
			l0.028,0.009c0.825,0.275,1.641,0.559,2.458,0.88l57.643,20.568c-17.698-5.786-37.9-0.376-50.17,15.057
			c-15.754,19.817-12.462,48.666,7.354,64.42L713.743,885.565z"/>
		<path fill="#019798" d="M937.989,382.824c-21.761-6.144-45.236,4.603-54.48,25.906l-159.505,367.84l-51.573-40.999l151.032-348.28
			c7.501-17.295,24.365-27.62,42.082-27.62c4.035,0,8.116,0.541,12.141,1.65l0.11,0.037c2.008,0.559,4.007,1.256,5.97,2.109
			c0.083,0.028,0.147,0.064,0.229,0.101L937.989,382.824z"/>
		<g>
			<path fill="#F3F3F3" d="M742.278,895.528c-10.258,0-20.338-3.443-28.537-9.961l-140.491-111.7
				c-19.821-15.759-23.114-44.603-7.355-64.424c15.759-19.82,44.603-23.112,64.424-7.355l93.682,74.484l159.51-367.843
				c10.075-23.232,37.076-33.9,60.307-23.824c23.232,10.074,33.899,37.074,23.824,60.307L784.341,867.918
				c-5.674,13.084-17.112,22.783-30.946,26.241C749.721,895.077,745.987,895.528,742.278,895.528z"/>
		</g>
	</g>
	<g>
		<path fill="#F3F3F3" d="M694.275,866.579l9.46,3.35C700.472,869.191,697.295,868.063,694.275,866.579z"/>
		<path fill="#F3F3F3" d="M904.144,387.765l-5.52-1.97C900.482,386.324,902.322,386.975,904.144,387.765z"/>
	</g>
</g>
</svg>
